<svg aria-hidden="true" style="position:absolute;width:0;height:0;overflow:hidden" xmlns="http://www.w3.org/2000/svg">
    <defs>
        <!-- Hero btn icon -->
        <symbol id="icon-arrow-right" viewBox="0 0 32 32">
            <path d="M27.129 16.815c0.122-0.317 0.153-0.666 0.092-1.002-0.063-0.345-0.218-0.647-0.438-0.889l0.001 0.001-6.378-6.925c-0.142-0.161-0.314-0.291-0.508-0.384l-0.010-0.004c-0.184-0.088-0.401-0.14-0.629-0.14-0.218 0-0.426 0.047-0.613 0.132l0.009-0.004c-0.196 0.087-0.375 0.215-0.524 0.378-0.147 0.16-0.265 0.349-0.345 0.557l-0.004 0.012c-0.076 0.195-0.119 0.42-0.119 0.656 0 0.246 0.048 0.48 0.134 0.695l-0.004-0.013c0.084 0.212 0.205 0.403 0.358 0.563l3.658 3.972h-15.284c-0.422 0-0.829 0.182-1.127 0.508-0.29 0.32-0.467 0.746-0.467 1.213 0 0.004 0 0.007 0 0.011v-0.001c0 0.46 0.167 0.9 0.467 1.225s0.704 0.508 1.127 0.508h15.284l-3.657 3.971c-0.151 0.16-0.273 0.349-0.356 0.561-0.081 0.201-0.128 0.434-0.128 0.678 0 0.473 0.177 0.904 0.467 1.232l-0.002-0.002c0.15 0.161 0.327 0.291 0.524 0.378 0.177 0.081 0.385 0.128 0.603 0.128 0.228 0 0.445-0.052 0.638-0.144l-0.009 0.004c0.195-0.092 0.371-0.223 0.518-0.388l6.378-6.927c0.147-0.16 0.265-0.352 0.343-0.563z"></path>
        </symbol>
        <!-- Point hero add text icon -->
        <symbol id="icon-point" viewBox="0 0 32 32">
            <path d="M32 16c0 8.837-7.163 16-16 16s-16-7.163-16-16c0-8.837 7.163-16 16-16s16 7.163 16 16z"></path>
        </symbol>
        <!-- Email -->
        <symbol id="icon-email" viewBox="0 0 32 32">
            <path d="M2.807 14.174l8.186 5.954-3.721 3.721c-0.1 0.095 0.055 0.618 0 0.744s0.002-0.138 0 0c-0.002 0.138-0.052 0.616 0 0.744-0.097-0.098 0.052 0.128 0 0 0.097 0.098 0.617-0.053 0.744 0-0.138 0.001 0.127 0.053 0 0 0.138-0.001 0.617 0.054 0.744 0-0.096 0.099 0.127-0.054 0 0l4.465-3.721 2.233 1.488c0.174 0.121 0.533 0 0.744 0s0.57 0.121 0.744 0l2.233-1.488 4.465 3.721c-0.126-0.052 0.097 0.097 0 0 0.126 0.052 0.607 0 0.744 0-0.126 0.052 0.137 0 0 0 0.126-0.052 0.647 0.097 0.744 0-0.052 0.126 0.097-0.097 0 0 0.052-0.126 0-0.607 0-0.744s0.052 0.126 0 0c-0.052-0.126 0.097-0.647 0-0.744l-3.721-3.721 8.186-5.954v11.907c0.003 0.453 0.172 0.325 0 0.744s-0.424 1.168-0.744 1.488c-0.32 0.321-1.070 0.571-1.488 0.744s-0.291 0.002-0.744 0h-20.093c-0.453 0.002-1.070 0.173-1.488 0s-1.169-0.423-1.488-0.744c-0.32-0.321-0.573-1.069-0.744-1.488s-0.003-0.291 0-0.744v-11.907zM10.993 11.197c-0.258 0.027-0.57 0.551-0.744 0.744s-0.744-0.26-0.744 0 0.57 0.551 0.744 0.744c0.174 0.193 0.486 0.717 0.744 0.744h11.163c-0.14 0.046 0.146 0.015 0 0 0.14-0.046 0.635 0.098 0.744 0s-0.060-0.61 0-0.744c0.060-0.134 0-0.597 0-0.744s0.060 0.134 0 0c-0.060-0.134 0.109-0.646 0-0.744s-0.605 0.046-0.744 0c-0.14-0.046 0.146-0.015 0 0h-11.163zM26.621 10.453l2.233 2.233-2.233 1.488v-3.721zM6.528 10.453v3.721l-2.977-1.488 2.977-2.233zM10.249 5.988c-0.281 0.018-0.558-0.211-0.744 0s-0.018 0.463 0 0.744c0.018 0.281-0.211 0.558 0 0.744s1.207 0.018 1.488 0h5.209c0.281 0 0.545 0.199 0.744 0s0-0.463 0-0.744 0.199-0.545 0-0.744c-0.199-0.199-0.463 0-0.744 0h-5.954zM20.668 3.755l2.233 2.977h-2.233v-2.977zM9.505 2.267h8.93v5.953c0 0.278 0.547-0.197 0.744 0s0.466 0.744 0.744 0.744h4.465v6.698l-8.186 5.209-8.186-5.209v-11.907c-0.001-0.158-0.061-0.598 0-0.744s0.63-0.634 0.744-0.744c-0.153 0.072 0.106-0.131 0 0 0.153-0.072 0.576-0.002 0.744 0zM19.924 0.034h-10.419c-0.888 0-1.605 0.116-2.233 0.744s-0.744 2.089-0.744 2.977v4.465l-5.209 2.977c-0.166 0.085-0.644 0.587-0.744 0.744s0.007 0.558 0 0.744v13.395c0.015 1.471 0.443 2.686 1.488 3.721s2.994 1.488 4.465 1.488h20.093c1.451-0.029 2.7-0.457 3.721-1.488s1.474-2.269 1.488-3.721v-13.395c-0.001-0.2 0.109-0.576 0-0.744s-0.562-0.661-0.744-0.744l-4.465-2.977c0.043-0.169-0.699-0.576-0.744-0.744s0.121 0.125 0 0l-5.209-6.698c-0.097-0.137-0.594-0.67-0.744-0.744 0.167-0.006-0.15-0.074 0 0z"></path>
        </symbol>
    </defs>
</svg>